# File created by Blade
# Date/Time:  Wed Apr 08 17:00:17 2015
# Frame Rate: 120.000 fps
#------------------------------------------------------
:FULLY-SPECIFIED
:DEGREES
1388
root 1.313904 35.643990 2.853534 -24.580656 -75.185819 12.016734
Spine 9.877113 7.232494 -11.660432
Head -1.343630 -17.135711 7.055621
LeftShoulder 8.999764 -0.059201 24.889383
LeftArm 92.776822 47.546805 -42.189244
LeftForeArm -46.108339 -0.000000 94.300825
LeftHand -28.972772 -0.000000 21.077767
LeftHandThumb1 -26.253704 0.000000 33.147579
RightShoulder 2.631219 -33.648370 -25.792714
RightArm 95.758640 28.623450 47.755218
RightForeArm -16.798455 -0.000000 125.458175
RightHand 0.590396 -0.000000 26.097868
RightHandThumb1 -24.326973 -0.000000 -32.862282
LeftUpLeg 12.721159 4.479944 4.963466
LeftLeg 12.809905 -0.000000 -0.000000
LeftFoot -13.950998 -4.119716 -11.541555
LeftToeBase 10.298561 -0.000000 -0.000000
RightUpLeg 25.018153 -20.317105 -18.886704
RightLeg 1.301236 -0.000000 -0.000000
RightFoot -12.279737 4.834651 20.618670
RightToeBase 14.569243 -0.000000 -0.000000
1389
root 1.306993 35.644144 2.854722 -24.552342 -75.176718 12.008056
Spine 9.800271 7.230596 -11.667330
Head -1.537539 -17.196837 6.915256
LeftShoulder 9.024134 -0.094841 24.885181
LeftArm 92.707646 47.497140 -42.258661
LeftForeArm -46.196039 -0.000000 94.294867
LeftHand -29.143163 -0.000000 21.139279
LeftHandThumb1 -26.253704 0.000000 33.147579
RightShoulder 2.704371 -33.606986 -25.854989
RightArm 95.875494 28.585315 48.543518
RightForeArm -16.136962 0.000000 125.918735
RightHand 0.765788 -0.000000 25.984737
RightHandThumb1 -24.326973 -0.000000 -32.862282
LeftUpLeg 12.708606 4.473393 4.963591
LeftLeg 12.814354 -0.000000 -0.000000
LeftFoot -13.951232 -4.132308 -11.561318
LeftToeBase 10.290723 -0.000000 -0.000000
RightUpLeg 25.012424 -20.326995 -18.885443
RightLeg 1.306804 -0.000000 -0.000000
RightFoot -12.283392 4.834548 20.613289
RightToeBase 14.560294 -0.000000 -0.000000
1390
root 1.301014 35.643508 2.856590 -24.569296 -75.167437 12.046076
Spine 9.724083 7.232306 -11.675409
Head -1.728544 -17.288982 6.739632
LeftShoulder 9.033794 -0.096465 24.864064
LeftArm 92.658751 47.447887 -42.307953
LeftForeArm -46.228275 -0.000000 94.308663
LeftHand -29.249034 -0.000000 21.188748
LeftHandThumb1 -26.253704 0.000000 33.147579
RightShoulder 2.768981 -33.567275 -25.930661
RightArm 96.027739 28.509644 49.346757
RightForeArm -15.332967 -0.000000 126.291327
RightHand 0.749616 -0.000000 25.984591
RightHandThumb1 -24.326973 -0.000000 -32.862282
LeftUpLeg 12.694990 4.471127 4.951018
LeftLeg 12.821557 -0.000000 -0.000000
LeftFoot -13.964910 -4.138172 -11.562134
LeftToeBase 10.314760 -0.000000 -0.000000
RightUpLeg 24.999465 -20.306650 -18.883177
RightLeg 1.312375 -0.000000 -0.000000
RightFoot -12.309315 4.817120 20.629043
RightToeBase 14.585819 -0.000000 -0.000000
1391
root 1.294162 35.642525 2.858471 -24.572159 -75.149987 12.045689
Spine 9.664232 7.254365 -11.692743
Head -1.900021 -17.427088 6.625139
LeftShoulder 9.111309 -0.123258 24.893734
LeftArm 92.599001 47.392687 -42.377578
LeftForeArm -46.269243 -0.000000 94.311205
LeftHand -29.342991 -0.000000 21.268696
LeftHandThumb1 -26.253704 0.000000 33.147579
RightShoulder 2.826338 -33.467804 -25.993539
RightArm 96.075701 28.395571 50.119556
RightForeArm -14.190111 -0.000000 126.572592
RightHand 0.708506 -0.000000 25.892648
RightHandThumb1 -24.326973 -0.000000 -32.862282
LeftUpLeg 12.706193 4.470201 4.950776
LeftLeg 12.824085 -0.000000 -0.000000
LeftFoot -13.967036 -4.148356 -11.551736
LeftToeBase 10.294434 -0.000000 -0.000000
RightUpLeg 25.023114 -20.323647 -18.901186
RightLeg 1.313287 -0.000000 -0.000000
RightFoot -12.313551 4.818950 20.622344
RightToeBase 14.550458 -0.000000 -0.000000
1392
root 1.285926 35.643535 2.860343 -24.565389 -75.137608 12.074177
Spine 9.565142 7.163471 -11.703354
Head -2.092643 -17.501734 6.394651
LeftShoulder 9.057899 -0.106612 24.852471
LeftArm 92.554335 47.364575 -42.382426
LeftForeArm -46.329422 -0.000000 94.342826
LeftHand -29.439585 -0.000000 21.375963
LeftHandThumb1 -26.253704 0.000000 33.147579
RightShoulder 2.923253 -33.371661 -26.090087
RightArm 96.232893 28.253707 50.855161
RightForeArm -12.840938 -0.000000 126.759977
RightHand 0.447845 0.000000 25.959025
RightHandThumb1 -24.326973 -0.000000 -32.862282
LeftUpLeg 12.688427 4.475851 4.942908
LeftLeg 12.815496 -0.000000 -0.000000
LeftFoot -13.959291 -4.178841 -11.571293
LeftToeBase 10.314996 -0.000000 -0.000000
RightUpLeg 25.009433 -20.342034 -18.908928
RightLeg 1.308051 -0.000000 -0.000000
RightFoot -12.311851 4.818128 20.615880
RightToeBase 14.539544 -0.000000 -0.000000
1393
root 1.277952 35.643506 2.862890 -24.589604 -75.126786 12.108134
Spine 9.484066 7.123379 -11.717337
Head -2.258263 -17.591535 6.211739
LeftShoulder 9.092293 -0.095567 24.839994
LeftArm 92.481569 47.320386 -42.422749
LeftForeArm -46.388315 0.000000 94.375071
LeftHand -29.543084 -0.000000 21.459035
LeftHandThumb1 -26.253704 0.000000 33.147579
RightShoulder 3.014654 -33.222517 -26.200801
RightArm 96.268370 28.063255 51.542874
RightForeArm -11.242630 -0.000000 126.906353
RightHand 0.188489 -0.000000 25.906290
RightHandThumb1 -24.326973 -0.000000 -32.862282
LeftUpLeg 12.696415 4.500782 4.940877
LeftLeg 12.809679 -0.000000 -0.000000
LeftFoot -13.952248 -4.203130 -11.553152
LeftToeBase 10.303271 -0.000000 -0.000000
RightUpLeg 25.019957 -20.351419 -18.926643
RightLeg 1.308123 -0.000000 -0.000000
RightFoot -12.319526 4.816599 20.599322
RightToeBase 14.537717 -0.000000 -0.000000
1394
root 1.269204 35.644286 2.864506 -24.607806 -75.117243 12.139102
Spine 9.409698 7.037035 -11.733648
Head -2.461056 -17.617570 6.042776
LeftShoulder 9.060671 -0.058817 24.808320
LeftArm 92.426309 47.292035 -42.439936
LeftForeArm -46.436997 0.000000 94.393026
LeftHand -29.615338 -0.000000 21.376554
LeftHandThumb1 -26.253704 0.000000 33.147579
RightShoulder 3.129418 -33.251987 -26.298129
RightArm 96.516562 28.011837 52.372576
RightForeArm -9.601806 -0.000000 126.999662
RightHand 0.520001 -0.000000 25.864562
RightHandThumb1 -24.326973 -0.000000 -32.862282
LeftUpLeg 12.710134 4.506474 4.933699
LeftLeg 12.784553 -0.000000 -0.000000
LeftFoot -13.943750 -4.207938 -11.560017
LeftToeBase 10.304338 -0.000000 -0.000000
RightUpLeg 25.028011 -20.360704 -18.940790
RightLeg 1.305183 -0.000000 -0.000000
RightFoot -12.311104 4.819279 20.583528
RightToeBase 14.505775 -0.000000 -0.000000
1395
root 1.260451 35.644872 2.866784 -24.608389 -75.102580 12.149489
Spine 9.326298 6.975191 -11.739037
Head -2.639561 -17.578079 5.877110
LeftShoulder 9.085730 -0.019525 24.768737
LeftArm 92.332547 47.260311 -42.488418
LeftForeArm -46.504676 -0.000000 94.404857
LeftHand -29.718889 -0.000000 21.217893
LeftHandThumb1 -26.253704 0.000000 33.147579
RightShoulder 3.277949 -33.213714 -26.443972
RightArm 96.621563 27.902761 53.212798
RightForeArm -7.957389 -0.000000 127.208044
RightHand 0.498197 -0.000000 25.868774
RightHandThumb1 -24.326973 -0.000000 -32.862282
LeftUpLeg 12.726939 4.512103 4.930485
LeftLeg 12.760282 -0.000000 -0.000000
LeftFoot -13.929835 -4.229265 -11.571404
LeftToeBase 10.285999 -0.000000 -0.000000
RightUpLeg 25.043281 -20.374878 -18.953597
RightLeg 1.297272 -0.000000 -0.000000
RightFoot -12.312931 4.804435 20.561536
RightToeBase 14.492270 -0.000000 -0.000000
1396
root 1.252218 35.645389 2.868912 -24.631948 -75.098001 12.175222
Spine 9.255402 6.942069 -11.751495
Head -2.839178 -17.572950 5.747677
LeftShoulder 9.146362 0.013678 24.725979
LeftArm 92.233066 47.222208 -42.515561
LeftForeArm -46.645805 0.000000 94.463842
LeftHand -29.727758 0.000000 21.815328
LeftHandThumb1 -26.253704 0.000000 33.147579
RightShoulder 3.387342 -33.194873 -26.550326
RightArm 96.751836 27.799811 54.030521
RightForeArm -6.479341 -0.000000 127.397171
RightHand 0.466027 -0.000000 25.974943
RightHandThumb1 -24.326973 -0.000000 -32.862282
LeftUpLeg 12.747419 4.507408 4.921177
LeftLeg 12.744003 -0.000000 -0.000000
LeftFoot -13.933396 -4.214828 -11.572927
LeftToeBase 10.315947 -0.000000 -0.000000
RightUpLeg 25.059527 -20.374819 -18.965006
RightLeg 1.293172 -0.000000 -0.000000
RightFoot -12.311192 4.800163 20.559628
RightToeBase 14.521094 -0.000000 -0.000000
1397
root 1.243644 35.645697 2.870456 -24.640677 -75.106119 12.188071
Spine 9.184955 6.918035 -11.755086
Head -3.084651 -17.559261 5.603557
LeftShoulder 9.173689 0.073952 24.691146
LeftArm 92.320647 47.168440 -42.389107
LeftForeArm -46.525313 0.000000 94.451657
LeftHand -29.687055 -0.000000 22.133482
LeftHandThumb1 -26.253704 0.000000 33.147579
RightShoulder 3.480004 -33.208471 -26.638656
RightArm 96.921620 27.704851 54.822150
RightForeArm -5.180286 -0.000000 127.594606
RightHand 0.430246 -0.000000 25.946577
RightHandThumb1 -24.326973 -0.000000 -32.862282
LeftUpLeg 12.772485 4.520764 4.924603
LeftLeg 12.720065 -0.000000 -0.000000
LeftFoot -13.928734 -4.218058 -11.561621
LeftToeBase 10.283630 -0.000000 -0.000000
RightUpLeg 25.067626 -20.368625 -18.964494
RightLeg 1.288702 -0.000000 -0.000000
RightFoot -12.314948 4.785095 20.548405
RightToeBase 14.477273 -0.000000 -0.000000
1398
root 1.236377 35.645924 2.873281 -24.661415 -75.115435 12.213807
Spine 9.120504 6.889014 -11.756911
Head -3.359925 -17.549429 5.465799
LeftShoulder 9.179722 0.133183 24.645426
LeftArm 92.500331 47.108577 -42.192760
LeftForeArm -46.325758 -0.000000 94.394048
LeftHand -29.692930 0.000000 22.439650
LeftHandThumb1 -26.253704 0.000000 33.147579
RightShoulder 3.574381 -33.219723 -26.723887
RightArm 97.110029 27.578340 55.623009
RightForeArm -4.151772 0.000000 127.801033
RightHand 0.559396 -0.000000 25.920353
RightHandThumb1 -24.326973 -0.000000 -32.862282
LeftUpLeg 12.787184 4.518962 4.915637
LeftLeg 12.712635 -0.000000 -0.000000
LeftFoot -13.944758 -4.188492 -11.545087
LeftToeBase 10.322097 -0.000000 -0.000000
RightUpLeg 25.069347 -20.362304 -18.970415
RightLeg 1.293913 -0.000000 -0.000000
RightFoot -12.315267 4.780995 20.542735
RightToeBase 14.454725 -0.000000 -0.000000
1399
root 1.229248 35.646208 2.873882 -24.684354 -75.134305 12.241507
Spine 9.063342 6.881784 -11.773421
Head -3.673492 -17.589728 5.367292
LeftShoulder 9.204486 0.150552 24.646183
LeftArm 92.347993 47.098774 -42.363149
LeftForeArm -46.712233 0.000000 94.378119
LeftHand -29.865726 -0.000000 22.213267
LeftHandThumb1 -26.253704 0.000000 33.147579
RightShoulder 3.635099 -33.197147 -26.752504
RightArm 97.261372 27.476582 56.427588
RightForeArm -2.897672 -0.000000 128.056689
RightHand 0.695697 -0.000000 25.929957
RightHandThumb1 -24.326973 -0.000000 -32.862282
LeftUpLeg 12.802598 4.514127 4.914405
LeftLeg 12.705240 -0.000000 -0.000000
LeftFoot -13.937315 -4.184264 -11.590544
LeftToeBase 10.289809 -0.000000 -0.000000
RightUpLeg 25.067320 -20.353940 -18.970330
RightLeg 1.299034 -0.000000 -0.000000
RightFoot -12.322195 4.777068 20.517442
RightToeBase 14.469706 -0.000000 -0.000000
1400
root 1.221569 35.645475 2.876207 -24.687138 -75.161602 12.246643
Spine 8.997051 6.875165 -11.742699
Head -4.012785 -17.424651 5.224010
LeftShoulder 9.232141 0.185364 24.581514
LeftArm 92.290259 47.076986 -42.383004
LeftForeArm -46.766130 0.000000 94.402012
LeftHand -30.001860 0.000000 22.237057
LeftHandThumb1 -26.253704 0.000000 33.147579
RightShoulder 3.690703 -33.247205 -26.834204
RightArm 97.530323 27.355365 57.255626
RightForeArm -1.471684 -0.000000 128.260187
RightHand 0.644398 -0.000000 26.090420
RightHandThumb1 -24.326973 -0.000000 -32.862282
LeftUpLeg 12.818569 4.518536 4.917956
LeftLeg 12.707769 -0.000000 -0.000000
LeftFoot -13.964765 -4.165811 -11.572571
LeftToeBase 10.292772 -0.000000 -0.000000
RightUpLeg 25.067718 -20.321534 -18.956221
RightLeg 1.294442 -0.000000 -0.000000
RightFoot -12.324667 4.767611 20.520940
RightToeBase 14.485415 -0.000000 -0.000000
